# xmcd
#
# Track frame offsets:
#	150
#	14931
#	27837
#
# Disc length: 583 seconds
#
# Revision: 0
# Processed by: cddbd v1.5.2PL0 Copyright (c) Steve Scherf et al.
# Submitted via: audiograbber 1.83.01
#
DISCID=20024503
DTITLE=Various Artist - CDX 3
DYEAR=1991
DGENRE=Country
TTITLE0=Lee Greenwood - Hopelessly Yours [Duet with Suzy Bogguss]
TTITLE1=Glen Campbell - Livin' In A House Full Of Love
TTITLE2=Tony Toliver - Swinging Doors [Duet with Merle Haggard]
EXTD=
EXTT0=
EXTT1=
EXTT2=
PLAYORDER=
